<?xml version="1.0" encoding="UTF-8"?>
<svg width="137px" height="36px" viewBox="0 0 137 36" version="1.1" xmlns="http://www.w3.org/2000/svg" xmlns:xlink="http://www.w3.org/1999/xlink">
    <title>ADP_Logo</title>
    <g id="handsomephil.com" stroke="none" stroke-width="1" fill="none" fill-rule="evenodd">
        <g id="Homepage" transform="translate(-517.000000, -3853.000000)" fill="#000221" fill-rule="nonzero">
            <g id="Group-5" transform="translate(0.000000, 3545.000000)">
                <g id="ADP_Logo" transform="translate(517.000000, 308.000000)">
                    <path d="M17.6208935,0 C14.135844,0 10.7290253,1.03345374 7.83128322,2.96969907 C4.93354116,4.90588037 2.67496172,7.65791589 1.34132434,10.877672 C0.00768695664,14.097428 -0.34134295,17.6404785 0.33858677,21.0585645 C1.01851649,24.4766505 2.69677929,27.6165112 5.16111481,30.0807187 C7.62545032,32.5450542 10.765183,34.2233682 14.183269,34.9032467 C17.601483,35.5831252 21.1444055,35.2342234 24.3641615,33.9004579 C27.5840456,32.5668206 30.3360812,30.3083692 32.2722625,27.4106271 C34.2084438,24.512885 35.2418335,21.1059383 35.2418335,17.6208888 C35.2418335,12.9475243 33.3854195,8.4655757 30.0809027,5.16105888 C26.7762578,1.85654206 22.2943092,0 17.6209447,0 L17.6208935,0 Z M17.6208935,32.5304579 C14.6720645,32.5304579 11.7893028,31.6559626 9.33738696,30.0175963 C6.88547107,28.3792299 4.97438509,26.050614 3.84586359,23.3262346 C2.7173677,20.6017271 2.42208789,17.6038598 2.99739827,14.7116234 C3.57270864,11.8193869 4.99273284,9.16261121 7.07794967,7.07739439 C9.16316649,4.99217757 11.8198142,3.57211495 14.7121786,2.99684299 C17.6044151,2.42153262 20.6022824,2.71679963 23.3267899,3.84530832 C26.0511693,4.97380421 28.3797852,6.88491579 30.0181515,9.33683168 C31.6565179,11.7887476 32.5310132,14.6713812 32.5310132,17.6203382 C32.5310132,21.5747728 30.9601226,25.3671121 28.1639142,28.1633205 C25.3677057,30.9595289 21.5753665,32.5304579 17.6209319,32.5304579 L17.6208935,32.5304579 Z" id="Shape"></path>
                    <path d="M10.560272,17.2684019 C10.6862864,17.395415 10.8362054,17.4963084 11.0013736,17.5650645 C11.1665546,17.6339486 11.3437199,17.6692869 11.5226522,17.6692869 C11.7015844,17.6692869 11.8787498,17.6339486 12.0439308,17.5650645 C12.209099,17.4963084 12.359018,17.395415 12.4850196,17.2684019 L15.6703336,14.0830879 C16.2687803,13.4759346 16.6338149,12.6769813 16.7009065,11.8270692 C16.7679981,10.9771826 16.5329214,10.1308299 16.0371607,9.43737944 C15.5412719,8.74386495 14.8165803,8.24764327 13.9906112,8.03626636 C13.16477,7.82483822 12.2906588,7.9117628 11.5225626,8.28171402 C10.7533012,7.88893374 9.86857565,7.7853643 9.02941864,7.98984 C8.19023602,8.1943285 7.45238219,8.69326458 6.9499635,9.39594654 C6.44760883,10.0985773 6.21419668,10.9582587 6.29217144,11.8184138 C6.37015901,12.678633 6.75434798,13.4822596 7.37486836,14.0831391 L10.5601824,17.2684531 L10.560272,17.2684019 Z M9.2861464,10.843486 C9.36841041,10.7573808 9.46728088,10.6888424 9.57677845,10.6420192 C9.68627602,10.5951831 9.80412163,10.571048 9.9232092,10.571048 C10.0422968,10.571048 10.1601552,10.5951831 10.2696528,10.6420192 C10.3791503,10.6888424 10.478008,10.7573808 10.560272,10.843486 C10.6862864,10.9705375 10.8362054,11.0713797 11.0013736,11.140187 C11.1665546,11.2090071 11.3437199,11.244435 11.5226522,11.244435 C11.7015844,11.244435 11.8787498,11.2090071 12.0439308,11.140187 C12.209099,11.0713797 12.359018,10.9705375 12.4850196,10.843486 C12.5682567,10.7590709 12.6674344,10.6920306 12.776804,10.64627 C12.8861991,10.6005094 13.0034813,10.5769506 13.122044,10.5769506 C13.2406066,10.5769506 13.3580169,10.6005094 13.4673608,10.64627 C13.5767047,10.6920306 13.6759337,10.7590709 13.759158,10.843486 C13.8451991,10.92575 13.9138271,11.0246205 13.9606888,11.134118 C14.0074225,11.2436156 14.0316215,11.3614612 14.0316215,11.4805616 C14.0316215,11.5996492 14.0074225,11.7174948 13.9606888,11.8269923 C13.9138271,11.9364899 13.8451991,12.0353604 13.759158,12.1176244 L11.522601,14.3948973 L9.28604397,12.1990562 C9.19993883,12.1167921 9.13140041,12.0179217 9.08456434,11.9084241 C9.03774107,11.7989265 9.01359322,11.6810681 9.01359322,11.5619806 C9.01359322,11.442893 9.03774107,11.3250474 9.08456434,11.2155498 C9.13140041,11.1060522 9.19993883,11.0071818 9.28604397,10.9249178 L9.28604397,10.8435884 L9.2861464,10.843486 Z" id="Shape"></path>
                    <path d="M22.7590337,17.2684019 C22.8850225,17.395415 23.0349542,17.4963084 23.2001225,17.5650645 C23.3652907,17.6339486 23.5424944,17.6692869 23.7213627,17.6692869 C23.9003589,17.6692869 24.0775627,17.6339486 24.2427309,17.5650645 C24.4078991,17.4963084 24.5577028,17.395415 24.6838197,17.2684019 L27.8691337,14.0830879 C28.4675804,13.4759346 28.832615,12.6769813 28.8997066,11.8270692 C28.9667982,10.9771826 28.7317215,10.1308299 28.2359608,9.43737944 C27.740072,8.74386495 27.0153804,8.24764327 26.1894113,8.03626636 C25.3635701,7.82483822 24.4894589,7.9117628 23.7213627,8.28171402 C22.9521141,7.88893374 22.0673757,7.7853643 21.2282187,7.98984 C20.3890617,8.1943285 19.6511823,8.69326458 19.1487636,9.39594654 C18.6464729,10.0985773 18.4130608,10.9582587 18.4910356,11.8184138 C18.5690103,12.678569 18.9532505,13.4822596 19.5737197,14.0831391 L22.7590337,17.2684531 L22.7590337,17.2684019 Z M21.4849337,10.843486 C21.5671337,10.7573808 21.6659785,10.6888424 21.7755785,10.6420192 C21.8850505,10.5951831 22.0028449,10.571048 22.1219197,10.571048 C22.2409944,10.571048 22.3589169,10.5951831 22.4683888,10.6420192 C22.5778608,10.6888424 22.6767056,10.7573808 22.7590337,10.843486 C22.8850225,10.9705375 23.0349542,11.0713797 23.2001225,11.140187 C23.3652907,11.2090071 23.5424944,11.244435 23.7213627,11.244435 C23.9003589,11.244435 24.0775627,11.2090071 24.2427309,11.140187 C24.4078991,11.0713797 24.5577028,10.9705375 24.6838197,10.843486 C24.767044,10.7590709 24.8661449,10.6920306 24.9754888,10.64627 C25.0849608,10.6005094 25.202243,10.5769506 25.3208056,10.5769506 C25.4393683,10.5769506 25.5567785,10.6005094 25.6661225,10.64627 C25.7754664,10.6920306 25.8746954,10.7590709 25.9579197,10.843486 C26.0439608,10.92575 26.1125888,11.0246205 26.1593225,11.134118 C26.2061842,11.2436156 26.2303832,11.3614612 26.2303832,11.4805616 C26.2303832,11.5996492 26.2061842,11.7174948 26.1593225,11.8269923 C26.1125888,11.9364899 26.0439608,12.0353604 25.9579197,12.1176244 L23.7213627,14.3948973 L21.4849337,12.1990562 C21.3987645,12.1167921 21.3302645,12.0179217 21.2834028,11.9084241 C21.2365412,11.7989265 21.2124701,11.6810681 21.2124701,11.5619806 C21.2124701,11.442893 21.2365412,11.3250474 21.2834028,11.2155498 C21.3302645,11.1060522 21.3987645,11.0071818 21.4849337,10.9249178 L21.4849337,10.8435884 L21.4849337,10.843486 Z" id="Shape"></path>
                    <path d="M27.109744,18.9764206 C26.750215,18.9764206 26.4055384,19.1193103 26.1512561,19.3734645 C25.8971019,19.6276187 25.7543402,19.9724234 25.7543402,20.3319523 C25.7543402,24.0729486 22.1080916,27.1092271 17.6215337,27.1092271 C13.1349757,27.1092271 9.48885518,24.0729486 9.48885518,20.3319523 C9.48885518,19.9724234 9.34605509,19.6276187 9.09184967,19.3734645 C8.83765705,19.1193103 8.49289079,18.9764206 8.13340023,18.9764206 C7.77390967,18.9764206 7.42915621,19.1193103 7.17495079,19.3734645 C6.92075817,19.6276187 6.77794527,19.9724234 6.77794527,20.3319523 C6.77794527,25.5639439 11.644006,29.8201626 17.6215593,29.8201626 C23.5991126,29.8201626 28.4653013,25.5639439 28.4653013,20.3319523 C28.4653013,19.9724234 28.3224116,19.6276187 28.0682574,19.3734645 C27.8141032,19.1193103 27.4692985,18.9764206 27.1097696,18.9764206 L27.109744,18.9764206 Z" id="Path"></path>
                    <path d="M54.9681178,23.1990935 L47.5288898,23.1990935 L46.0048608,27.4208701 L42.2335197,27.4208701 L49.2595711,8.94379533 L53.3924898,8.94379533 L60.3668141,27.4208701 L56.4921468,27.4208701 L54.9681178,23.1990935 L54.9681178,23.1990935 Z M48.7170767,19.9154467 L53.7799309,19.9154467 L51.2485038,12.9312636 L48.7170767,19.9154467 L48.7170767,19.9154467 Z" id="Shape"></path>
                    <path d="M69.1149683,24.0851121 C69.8555365,24.0851121 70.5615346,23.9721832 71.2332187,23.7463252 C71.9047748,23.5030542 72.4902898,23.1381477 72.9896356,22.6517336 C73.4891094,22.1653196 73.885129,21.5571421 74.1779505,20.827457 C74.470644,20.0804869 74.6169907,19.2030467 74.6169907,18.1953925 C74.6169907,17.1877383 74.470644,16.3190047 74.1779505,15.5893196 C73.885129,14.8422215 73.4891094,14.2254654 72.9896356,13.7390514 C72.5074468,13.2526374 71.9306384,12.8877308 71.2589542,12.6444982 C70.5873982,12.4012656 69.8814,12.2796557 69.1408318,12.2796557 L66.2735627,12.2796557 L66.2735627,24.0851121 L69.1149683,24.0851121 L69.1149683,24.0851121 Z M62.7088739,27.4207421 L62.7088739,8.94366729 L69.2700215,8.94366729 C70.5788197,8.94366729 71.7841636,9.15215056 72.8863094,9.5691171 C73.9884552,9.98608364 74.9355477,10.5941588 75.727715,11.3933937 C76.5371673,12.1752028 77.1657028,13.1395676 77.6134496,14.2860143 C78.0783533,15.4327171 78.3108692,16.7357536 78.3108692,18.1951236 C78.3108692,19.6544937 78.0783533,20.9575302 77.6134496,22.104233 C77.1657028,23.2508078 76.5371673,24.2150573 75.727715,24.9968536 C74.9183907,25.7787779 73.9625916,26.3781208 72.8605739,26.7951386 C71.7584281,27.2120283 70.5529561,27.4204732 69.244158,27.4204732 L62.7088739,27.4204732 L62.7088739,27.4207421 Z" id="Shape"></path>
                    <path d="M87.8071458,17.3618692 C88.7026393,17.3618692 89.4000589,17.1273047 89.8995328,16.6581757 C90.4161636,16.1717617 90.674415,15.528886 90.674415,14.7296766 C90.674415,13.8957692 90.4161636,13.244315 89.8995328,12.775186 C89.4000589,12.3060954 88.7026393,12.0715565 87.8071458,12.0715565 L84.9916038,12.0715565 L84.9916038,17.3618051 L87.8071458,17.3618051 L87.8071458,17.3618692 Z M84.9657402,20.4630626 L84.9657402,27.4211262 L81.4010514,27.4211262 L81.4010514,8.9440514 L88.2463141,8.9440514 C89.1418075,8.9440514 89.9597103,9.09172972 90.7002785,9.38707355 C91.4407187,9.66505551 92.0779608,10.0646474 92.6117486,10.585862 C93.1455365,11.0897019 93.5502627,11.697777 93.8257991,12.4101386 C94.1186206,13.1050615 94.2649673,13.8695087 94.2649673,14.7035442 C94.2649673,15.5375797 94.1186206,16.3105414 93.8257991,17.0229414 C93.5502627,17.7352134 93.1455365,18.3432629 92.6117486,18.84709 C92.0779608,19.3509171 91.4407187,19.7505218 90.7002785,20.045904 C89.9597103,20.3238732 89.1418075,20.4629218 88.2463141,20.4629218 L84.9657402,20.4629218 L84.9657402,20.4630626 Z" id="Shape"></path>
                    <polygon id="Path" points="96.9912673 27.420486 96.9912673 8.94341121 100.555956 8.94341121 100.555956 23.9801215 108.718595 23.9801215 108.718595 27.4201019 96.9912673 27.4201019"></polygon>
                    <path d="M111.186772,27.420486 L111.186772,14.5988224 L114.622271,14.5988224 L114.622271,27.420486 L111.186772,27.420486 Z M110.773467,10.4030374 C110.773467,9.79496224 110.98012,9.2824414 111.393424,8.86543645 C111.806729,8.4484315 112.306075,8.23998664 112.89159,8.23998664 C113.494262,8.23998664 113.993736,8.44846991 114.389755,8.86543645 C114.80306,9.28240299 115.009712,9.79492383 115.009712,10.4030374 C115.009712,10.976376 114.80306,11.4715221 114.389755,11.8885271 C113.993736,12.3054936 113.494262,12.5139769 112.89159,12.5139769 C112.306075,12.5139769 111.806729,12.3054936 111.393424,11.8885271 C110.98012,11.4715606 110.773467,10.9764144 110.773467,10.4030374 Z" id="Shape"></path>
                    <path d="M120.159632,23.1990935 C120.194074,23.7029206 120.400726,24.1546364 120.779589,24.5542411 C121.158451,24.9538458 121.726809,25.1537121 122.484407,25.1537121 C123.052765,25.1537121 123.474648,25.0320766 123.750184,24.7888056 C124.025721,24.5282495 124.163489,24.2241607 124.163489,23.8766673 C124.163489,23.581285 124.060163,23.3294355 123.85351,23.1209907 C123.646858,22.8951327 123.293859,22.7300925 122.794385,22.6257421 L121.115431,22.2348439 C119.875517,21.9568748 118.971445,21.4791673 118.403215,20.8015935 C117.834857,20.1066065 117.550742,19.3073972 117.550742,18.4039654 C117.550742,17.830614 117.671225,17.2920888 117.91232,16.7882617 C118.153414,16.2670215 118.480678,15.8240121 118.893982,15.4591056 C119.324444,15.076914 119.823918,14.7729533 120.392148,14.5470953 C120.977663,14.3212374 121.614777,14.2083084 122.303618,14.2083084 C123.199111,14.2083084 123.956836,14.3385224 124.576793,14.5992065 C125.196751,14.8423495 125.696096,15.1551449 126.074959,15.5373364 C126.471107,15.919528 126.7638,16.3278393 126.953295,16.7621421 C127.142663,17.1791598 127.254567,17.5613514 127.289009,17.9088449 L124.42174,18.5602991 C124.387298,18.3692673 124.327121,18.1781075 124.240951,17.9870757 C124.172067,17.7785028 124.051584,17.587471 123.879374,17.4137243 C123.707164,17.2399776 123.491933,17.100929 123.233553,16.9967065 C122.992459,16.8924841 122.691059,16.8403729 122.329481,16.8403729 C121.881735,16.8403729 121.494293,16.9620084 121.16703,17.2051514 C120.857051,17.4484224 120.702126,17.7525112 120.702126,18.1172897 C120.702126,18.430085 120.805452,18.6819346 121.012105,18.8730944 C121.235914,19.0642542 121.520157,19.1944682 121.864578,19.2639925 L123.672722,19.6548907 C124.929793,19.9154467 125.868307,20.4019888 126.488264,21.1142607 C127.125506,21.8266607 127.444063,22.6518617 127.444063,23.5899916 C127.444063,24.1112318 127.340736,24.6237654 127.134084,25.1275925 C126.944589,25.6314196 126.643189,26.0831355 126.230012,26.4827402 C125.816708,26.8823449 125.300077,27.2037187 124.68012,27.4469897 C124.060163,27.6902607 123.336879,27.8117682 122.51027,27.8117682 C121.545893,27.8117682 120.736568,27.6728477 120.082169,27.3948785 C119.42777,27.1169093 118.893982,26.7781224 118.480678,26.3785178 C118.067373,25.9789131 117.757394,25.5533168 117.550742,25.1016009 C117.361247,24.632472 117.249342,24.2154542 117.2149,23.8506757 L120.159632,23.1990935 L120.159632,23.1990935 Z" id="Path"></path>
                    <path d="M134.439641,14.5988224 L136.996548,14.5988224 L136.996548,17.6738963 L134.439641,17.6738963 L134.439641,23.0423757 C134.439641,23.598314 134.559996,23.9892121 134.800707,24.2150701 C135.059342,24.423643 135.438333,24.5278654 135.937679,24.5278654 C136.143819,24.5278654 136.351239,24.5191589 136.557379,24.5017458 C136.76352,24.4843327 136.910763,24.4583411 136.996548,24.423643 L136.996548,27.290272 C136.841622,27.3596682 136.600912,27.4291925 136.273136,27.4987168 C135.963286,27.5682411 135.558688,27.6029393 135.059342,27.6029393 C133.81866,27.6029393 132.837893,27.2554458 132.114482,26.5605869 C131.391071,25.8656 131.030006,24.8926439 131.030006,23.6417187 L131.030006,17.6738963 L128.730454,17.6738963 L128.730454,14.5988224 L129.375763,14.5988224 C130.047959,14.5988224 130.538342,14.4076626 130.848193,14.025471 C131.175968,13.6258664 131.339856,13.1394523 131.339856,12.5661009 L131.339856,10.7679439 L134.439641,10.7679439 L134.439641,14.5988224 L134.439641,14.5988224 Z" id="Path"></path>
                </g>
            </g>
        </g>
    </g>
</svg>