<?xml version="1.0" encoding="UTF-8"?>
<svg width="32px" height="32px" viewBox="0 0 32 32" version="1.1" xmlns="http://www.w3.org/2000/svg" xmlns:xlink="http://www.w3.org/1999/xlink">
    <title>LinkedIn logo</title>
    <g id="Symbols" stroke="none" stroke-width="1" fill="none" fill-rule="evenodd">
        <g id="Footer" transform="translate(-1116.000000, -54.000000)" fill="#FFFFFF">
            <g id="Group-6" transform="translate(0.000000, 20.000000)">
                <g id="LinkedIn-logo" transform="translate(1116.000000, 34.000000)">
                    <path d="M16,0 C24.836556,0 32,7.163444 32,16 C32,24.836556 24.836556,32 16,32 C7.163444,32 0,24.836556 0,16 C0,7.163444 7.163444,0 16,0 Z M21.0321429,12.3121944 C19.0147321,12.3121944 17.6625,13.419362 17.1089286,14.4684926 L17.1089286,14.4684926 L17.0508929,14.4684926 L17.0508929,12.6470233 L13.0741071,12.6470233 L13.0741071,26 L17.2160714,26 L17.2160714,19.3882453 C17.2160714,17.647135 17.5464286,15.9640617 19.7022321,15.9640617 C21.8267857,15.9640617 21.8580357,17.9507132 21.8580357,19.4998549 L21.8580357,19.4998549 L21.8580357,26 L26,26 L26,18.6650148 C26,15.075649 25.2285714,12.3121944 21.0321429,12.3121944 Z M10.4767857,12.6470233 L6.33035714,12.6470233 L6.33035714,26 L10.4767857,26 L10.4767857,12.6470233 Z M8.40133929,6 C7.07511623,6 6,7.0751402 6,8.40139286 C6,9.72731531 7.07544643,10.8255541 8.40133929,10.8255541 C9.72678571,10.8255541 10.8026786,9.72731531 10.8026786,8.40139286 C10.8026786,7.0751402 9.72756234,6 8.40133929,6 Z" id="Combined-Shape"></path>
                </g>
            </g>
        </g>
    </g>
</svg>