<?xml version="1.0" encoding="UTF-8"?>
<svg width="32px" height="32px" viewBox="0 0 32 32" version="1.1" xmlns="http://www.w3.org/2000/svg" xmlns:xlink="http://www.w3.org/1999/xlink">
    <title>github-brands</title>
    <g id="Appendix" stroke="none" stroke-width="1" fill="none" fill-rule="evenodd">
        <g id="Desktop-HD-Copy-2" transform="translate(-1220.000000, -3902.000000)" fill="#FFFFFF" fill-rule="nonzero">
            <g id="github-brands" transform="translate(1220.000000, 3902.000000)">
                <path d="M10.7032258,25.7663532 C10.7032258,25.8986919 10.5548387,26.0045629 10.3677419,26.0045629 C10.1548387,26.0244138 10.0064516,25.9185428 10.0064516,25.7663532 C10.0064516,25.6340145 10.1548387,25.5281435 10.3419355,25.5281435 C10.5354839,25.5082927 10.7032258,25.6141637 10.7032258,25.7663532 Z M8.69677419,25.468591 C8.6516129,25.6009298 8.78064516,25.7531193 8.97419355,25.792821 C9.14193548,25.8589903 9.33548387,25.792821 9.37419355,25.6604822 C9.41290323,25.5281435 9.29032258,25.3759539 9.09677419,25.3164015 C8.92903226,25.2700829 8.74193548,25.3362523 8.69677419,25.468591 Z M11.5483871,25.3561031 C11.3612903,25.4024217 11.2322581,25.5281435 11.2516129,25.680333 C11.2709677,25.8126718 11.4387097,25.8986919 11.6322581,25.8523734 C11.8193548,25.8060548 11.9483871,25.680333 11.9290323,25.5479943 C11.9096774,25.4222725 11.7354839,25.3362523 11.5483871,25.3561031 Z M15.7935484,0 C6.84516129,0 0,6.9676348 0,16.1453266 C0,23.4835099 4.50322581,29.7629832 10.9354839,31.9730402 C11.7612903,32.1252298 12.0516129,31.6024918 12.0516129,31.1723908 C12.0516129,30.7621407 12.0322581,28.4991482 12.0322581,27.1095914 C12.0322581,27.1095914 7.51612903,28.102132 6.56774194,25.1377442 C6.56774194,25.1377442 5.83225806,23.2122155 4.77419355,22.7159452 C4.77419355,22.7159452 3.29677419,21.6770861 4.87741935,21.6969369 C4.87741935,21.6969369 6.48387097,21.8292756 7.36774194,23.4041066 C8.78064516,25.9582444 11.1483871,25.2237644 12.0709677,24.7870465 C12.2193548,23.7283366 12.6387097,22.9938565 13.1032258,22.5571387 C9.49677419,22.1468886 5.85806452,21.6109167 5.85806452,15.2454232 C5.85806452,13.4257654 6.3483871,12.5126281 7.38064516,11.3480472 C7.21290323,10.9179463 6.66451613,9.14460712 7.5483871,6.85514687 C8.89677419,6.42504596 12,8.6417199 12,8.6417199 C13.2903226,8.27117142 14.6774194,8.07928024 16.0516129,8.07928024 C17.4258065,8.07928024 18.8129032,8.27117142 20.1032258,8.6417199 C20.1032258,8.6417199 23.2064516,6.41842902 24.5548387,6.85514687 C25.4387097,9.15122406 24.8903226,10.9179463 24.7225806,11.3480472 C25.7548387,12.5192451 26.3870968,13.4323824 26.3870968,15.2454232 C26.3870968,21.6307675 22.5870968,22.1402717 18.9806452,22.5571387 C19.5741935,23.0798767 20.0774194,24.0724173 20.0774194,25.6273975 C20.0774194,27.8573053 20.0580645,30.6165681 20.0580645,31.159157 C20.0580645,31.5892579 20.3548387,32.1119959 21.1741935,31.9598064 C27.6258065,29.7629832 32,23.4835099 32,16.1453266 C32,6.9676348 24.7419355,0 15.7935484,0 Z M6.27096774,22.8218162 C6.18709677,22.8879856 6.20645161,23.0401751 6.31612903,23.1658969 C6.41935484,23.2717679 6.56774194,23.3180865 6.6516129,23.2320663 C6.73548387,23.1658969 6.71612903,23.0137074 6.60645161,22.8879856 C6.50322581,22.7821146 6.35483871,22.735796 6.27096774,22.8218162 Z M5.57419355,22.2858443 C5.52903226,22.3718645 5.59354839,22.4777354 5.72258065,22.5439048 C5.82580645,22.6100742 5.95483871,22.5902234 6,22.4975863 C6.04516129,22.4115661 5.98064516,22.3056951 5.8516129,22.2395257 C5.72258065,22.1998241 5.61935484,22.2196749 5.57419355,22.2858443 Z M7.66451613,24.6414739 C7.56129032,24.7274941 7.6,24.9260022 7.7483871,25.051724 C7.89677419,25.2039135 8.08387097,25.2237644 8.16774194,25.1178934 C8.2516129,25.0318732 8.21290323,24.8333651 8.08387097,24.7076433 C7.94193548,24.5554537 7.7483871,24.5356029 7.66451613,24.6414739 Z M6.92903226,23.6687841 C6.82580645,23.7349535 6.82580645,23.9069939 6.92903226,24.0591834 C7.03225806,24.211373 7.20645161,24.2775423 7.29032258,24.211373 C7.39354839,24.1253528 7.39354839,23.9533124 7.29032258,23.8011229 C7.2,23.6489333 7.03225806,23.5827639 6.92903226,23.6687841 Z" id="Shape"></path>
            </g>
        </g>
    </g>
</svg>