<?xml version="1.0" encoding="UTF-8"?>
<svg width="32px" height="32px" viewBox="0 0 32 32" version="1.1" xmlns="http://www.w3.org/2000/svg" xmlns:xlink="http://www.w3.org/1999/xlink">
    <title>Codepen logo</title>
    <g id="Symbols" stroke="none" stroke-width="1" fill="none" fill-rule="evenodd">
        <g id="Footer" transform="translate(-1168.000000, -54.000000)">
            <g id="Group-6" transform="translate(0.000000, 20.000000)">
                <g id="Codepen-logo" transform="translate(1168.000000, 34.000000)">
                    <path d="M16,0 C24.836556,0 32,7.163444 32,16 C32,24.836556 24.836556,32 16,32 C7.163444,32 0,24.836556 0,16 C0,7.163444 7.163444,0 16,0 Z M15.5167033,6.07573528 L6.31217583,12.2120869 C6.0761623,12.3693899 5.93006993,12.6504034 5.93006993,12.9313382 L5.93006993,19.0676505 C5.93006993,19.3486246 6.0761623,19.6295987 6.31221516,19.786941 L15.5167426,25.9241581 C15.830916,26.1174925 16.1662125,26.1192626 16.4832574,25.9241581 L25.6877848,19.786941 C25.9237984,19.629638 26.0699301,19.3486246 26.0699301,19.0676505 L26.0699301,12.9313382 C26.0699301,12.6504034 25.9237984,12.3693899 25.6877455,12.2120869 L16.483218,6.07573528 C16.1690447,5.88240087 15.8337481,5.88063077 15.5167033,6.07573528 Z M11.3808416,17.0446999 L15.1345974,19.5509668 L15.1345974,23.5856967 L8.35762638,19.0676898 L11.3808416,17.0446999 Z M20.619119,17.0446999 L23.6423343,19.0676898 L16.8653633,23.5856967 L16.8653633,19.5509668 L20.619119,17.0446999 Z M15.9999803,13.9540634 L19.0569455,15.999514 L15.9999803,18.0449645 L12.9430151,15.999514 L15.9999803,13.9540634 Z M7.66083578,14.5497222 L9.82991808,15.999514 L7.66083578,17.4493057 L7.66083578,14.5497222 Z M24.3391249,14.5497222 L24.3391249,17.4493057 L22.1700426,15.999514 L24.3391249,14.5497222 Z M16.8653633,8.41333124 L23.6423343,12.9313382 L20.619119,14.9543281 L16.8653633,12.4480611 L16.8653633,8.41333124 Z M15.1345974,8.41333124 L15.1345974,12.4480611 L11.3808416,14.9543281 L8.35762638,12.9313382 L15.1345974,8.41333124 Z" id="Combined-Shape" fill="#FFFFFF"></path>
                    <g id="codepen-brands" transform="translate(5.930070, 5.930070)"></g>
                </g>
            </g>
        </g>
    </g>
</svg>